<?xml version="1.0" encoding="utf-8"?>
<!-- Generator: Adobe Illustrator 18.1.0, SVG Export Plug-In . SVG Version: 6.00 Build 0)  -->
<!DOCTYPE svg PUBLIC "-//W3C//DTD SVG 1.1//EN" "http://www.w3.org/Graphics/SVG/1.1/DTD/svg11.dtd">
<svg version="1.1" id="Layer_1" xmlns="http://www.w3.org/2000/svg" xmlns:xlink="http://www.w3.org/1999/xlink" x="0px" y="0px"
	 viewBox="0 0 24 24" enable-background="new 0 0 24 24" xml:space="preserve">
<g>
	<path fill="#FFCD05" d="M3.8,21.8c-1.6,0-2.4-1.2-1.6-2.6l8.4-15.4c0.8-1.4,2.1-1.4,2.9,0l8.4,15.4c0.8,1.4,0.1,2.6-1.6,2.6H3.8z"
		/>
</g>
<g enable-background="new    ">
	<path fill="#FFFFFF" d="M10.6,18.6c0-0.4,0.1-0.8,0.4-1c0.3-0.3,0.6-0.4,1-0.4c0.4,0,0.7,0.1,1,0.4c0.3,0.3,0.4,0.6,0.4,1
		c0,0.4-0.1,0.8-0.4,1S12.4,20,12,20c-0.4,0-0.7-0.1-1-0.4S10.6,19,10.6,18.6z M11.2,9.1l0-1.8h1.8l0,1.8L12.6,14h-1.2L11.2,9.1z"/>
</g>
</svg>
